<?xml version="1.0" encoding="utf-8"?>
<!-- Generator: Adobe Illustrator 21.0.0, SVG Export Plug-In . SVG Version: 6.00 Build 0)  -->
<svg version="1.1" id="Calque_1" xmlns="http://www.w3.org/2000/svg" xmlns:xlink="http://www.w3.org/1999/xlink" x="0px" y="0px"
	 viewBox="0 0 200 100" style="enable-background:new 0 0 200 100;" xml:space="preserve">
<style type="text/css">
	.st0{fill:#FFFFFF;}
</style>
<g>
	<path class="st0" d="M57.6,28.9c0.8-1.1,1.6-2.1,2.6-2.9s1.9-1.6,3-2.4c1-0.8,2.1-1.4,3-2.1c1-0.6,1.9-1.3,2.7-1.9
		c0.8-0.6,1.6-1.3,2.1-1.9c0.6-0.6,1-1.3,1.1-1.9c0.3-1,0.6-1.8,1.1-2.4c0.5-0.5,1-0.8,1.3-0.8c0.3,0,0.6,0.3,1,0.8
		c0.2,0.5,0.2,1.3-0.2,2.4c0.2,1,0.5,2.2,0.8,3.7s0.8,3.2,1.1,5c1.1-1.6,2.2-3.2,3.5-4.6c1.3-1.4,2.4-2.9,3.5-4
		c1.1-1.1,2.2-2.4,3.2-3.4s1.9-1.8,2.6-2.6c0.6-1.3,1.4-2.4,2.2-3.2c0.8-0.8,1.8-1.3,2.6-1.6c0.8-0.3,1.6-0.3,2.2-0.2
		c0.6,0.2,1.1,0.5,1.3,1c0.2,0.5,0,1.1-0.3,1.9c-0.5,0.8-1.3,1.8-2.6,2.7c-1.9,3.5-3.4,7-4.5,10.6c-1,3.4-1.8,6.6-2.1,9.3
		c-0.3,2.7-0.5,5.1-0.5,7c0.2,1.9,0.3,3.2,0.6,3.7c0.3,0.6,0.8,1,1.3,1.1c0.5,0.2,1.1,0.2,1.8,0.2c0.5-0.2,0.6,0,0.6,0.5
		c0,0.3-0.3,0.8-0.8,1.3s-1,1.1-1.8,1.6c-0.8,0.5-1.4,1-2.4,1.1c-0.8,0.3-1.6,0.3-2.6,0c-0.8-0.2-1.6-0.8-2.2-1.8
		c-1-1.3-1.4-2.9-1.6-4.8s0-3.8,0.3-5.9c0.3-2.1,0.8-4.2,1.6-6.2c0.8-2.1,1.4-4.2,2.2-6.1s1.4-3.7,2.2-5.1c0.6-1.6,1.3-2.7,1.6-3.5
		c-1.1,1-2.2,2.1-3.2,3.4c-1,1.3-2.1,2.7-2.9,4.3c-1,1.6-1.8,3.2-2.6,5c-0.8,1.8-1.6,3.5-2.2,5.4c0,0.6,0.2,1.4,0.2,2.1
		c0,0.6,0.2,1.3,0.2,1.9c0,2.4-0.2,4.5-0.5,6.1c-0.5,1.6-1,2.9-1.8,3.7c-0.6,0.8-1.4,1.3-2.2,1.4c-0.8,0.2-1.6-0.2-2.2-0.6
		c-0.6-0.5-1.1-1.3-1.4-2.4s-0.3-2.4-0.2-4c0.3-2.2,1-4.3,1.8-6.2c0.8-2.1,1.8-4,2.9-5.9c-0.2-1.6-0.3-3-0.6-4.3
		c-0.3-1.3-0.5-2.6-0.8-3.7c-0.3,1.6-1,3.7-1.6,5.9s-1.4,4.6-2.2,7c-0.8,2.4-1.8,4.8-2.6,7c-1,2.2-1.9,4.3-2.7,5.9
		c-0.6,1.1-1.3,1.9-1.9,2.4c-0.6,0.5-1.3,0.8-1.9,1s-1.1,0-1.8-0.3c-0.5-0.3-1-0.8-1.1-1.4c-0.3-0.6-0.5-1.4-0.3-2.2
		c0-0.8,0.3-1.8,0.6-2.7c0.6-1.4,1.4-3,2.2-4.3c0.8-1.4,1.8-2.9,2.7-4.3c1-1.4,1.9-3,2.9-4.6s1.9-3.4,2.9-5.1
		c-0.8,0.5-1.4,1.1-1.9,1.6c-0.5,0.6-1,1.3-1.6,1.9c-0.5,0.6-1.1,1.4-1.8,2.4c-0.6,1-1.4,1.9-2.6,3c-1.1,1.1-1.9,1.8-2.7,1.9
		c-0.8,0.2-1.3-0.2-1.6-0.6c-0.3-0.5-0.5-1.3-0.3-2.2C56.5,30.8,56.8,29.9,57.6,28.9z"/>
	<path class="st0" d="M96.3,37.2c-1.3-0.8-1.9-1.8-2.2-3.2c-0.3-1.3-0.3-2.6,0-4c0.3-1.4,0.8-2.7,1.6-4c0.8-1.3,1.8-2.4,2.7-3.4
		c1-1,2.1-1.6,3.2-1.9c1.1-0.3,2.2-0.2,3.2,0.5c0.2-0.3,0.5-0.5,0.8-0.5c0.3-0.2,1,0,1.6,0.3c0.5,0.2,1,0.3,1.4,0.5
		c0.5,0.2,1,0.3,1.6,0.5c0.6,0.2,1.3,0.2,1.9,0.2c0.6,0,1.4,0,2.4-0.2c0.5,0,0.8,0,1,0.2s0.3,0.5,0.3,0.8s-0.2,0.5-0.5,0.8
		c-0.3,0.3-0.6,0.5-1,0.6c-1,0.2-1.8,0.3-2.4,0.5c-0.8,0-1.4,0.2-1.9,0c-0.6,0-1.1,0-1.6-0.2s-0.8-0.2-1.1-0.3
		c0.2,1.1,0.2,2.4-0.2,3.5c-0.3,1.1-0.6,2.4-1.1,3.5c-0.5,1.1-1.1,2.2-1.9,3.2c-0.8,1-1.6,1.8-2.4,2.2c-0.8,0.6-1.8,1-2.7,1
		C98.2,38,97.3,37.9,96.3,37.2z M99.4,32.7c0.5,0.5,1.1,0.5,1.8,0c0.6-0.5,1.3-1.1,1.9-2.1c0.6-1,1.1-2.1,1.4-3.2
		c0.3-1.3,0.5-2.4,0.5-3.5c-0.6-0.5-1.3-0.6-1.9-0.5c-0.6,0.2-1.1,0.5-1.8,1.1c-0.5,0.5-1,1.3-1.4,2.1c-0.3,0.8-0.6,1.6-0.8,2.6
		s-0.3,1.6-0.2,2.2C98.7,31.9,99,32.4,99.4,32.7z"/>
	<path class="st0" d="M112.5,18.3c0.2-0.5,0.3-0.8,0.6-1.1c0.3-0.3,0.6-0.5,1.1-0.6c0.3-0.2,0.8-0.2,1.1,0c0.3,0.2,0.6,0.3,1,0.8
		c0.3,0.5,0.5,1,0.5,1.6s0,1.4-0.3,2.4c0.8,0.2,1.8,0.3,2.6,0.2c1.1,0,1.8,0.3,1.9,1s0.2,1.4-0.3,2.4c-0.5,1.1-0.8,2.1-0.8,3
		c0,1,0.2,1.4,0.6,1.9c0.3,0.2,0.6,0.2,1.1,0c0.5-0.2,0.8-0.5,1.4-0.8c0.5-0.3,1-1,1.6-1.6c0.5-0.6,1.1-1.3,1.6-2.1
		c0.3-0.5,0.6-0.6,1-0.6s0.6,0,0.8,0.2c0.2,0.2,0.3,0.5,0.5,0.8c0,0.3,0,0.6-0.3,1.1c-0.3,0.3-0.6,1-1.1,1.8c-0.5,0.8-1,1.6-1.6,2.4
		s-1.4,1.6-2.2,2.2c-0.8,0.6-1.9,1.1-2.9,1.3c-1,0.2-1.8,0.2-2.4-0.2c-0.8-0.3-1.3-0.6-1.6-1.4c-0.3-0.6-0.6-1.6-0.6-2.6
		c0-1.1,0.2-2.2,0.8-3.8c0.2-0.6,0.3-1.1,0.5-1.4c0-0.3,0-0.6-0.2-1c-0.2-0.3-0.5-0.5-0.8-0.5c-0.3-0.2-0.8-0.3-1.4-0.5
		c-0.8-0.3-1.4-1-1.8-1.8C112.2,20.4,112.2,19.4,112.5,18.3z"/>
	<path class="st0" d="M21.4,80.3c0.6-1.1,1.6-1.9,2.4-2.4c1-0.6,1.9-1,3-1.3c1-2.4,1.9-4.8,3.2-7c1.1-2.2,2.6-4.2,4.2-5.9
		c-1,0.3-2.1,0.5-3,0.8c-1,0.3-1.9,0.6-2.7,1.1s-1.6,1-2.4,1.6c-0.8,0.6-1.4,1.4-1.9,2.2c-0.6,1.1-1.4,1.9-2.1,2.4
		c-0.6,0.5-1.1,0.6-1.6,0.6s-0.8-0.2-1.1-0.6s-0.5-1-0.6-1.6c-0.2-0.6,0-1.3,0.2-2.1c0.2-0.8,0.5-1.4,1-2.2c1-1.4,1.9-2.6,3-3.4
		c1.1-0.8,2.4-1.4,3.7-1.8c1.3-0.3,2.6-0.6,4-0.6C32,60,33.2,60,34.7,60s2.7-0.2,4.2-0.2c1.3-0.2,2.6-0.3,3.8-0.6
		c1.3-0.3,2.4-1,3.4-1.6c1.1-0.8,1.9-1.8,2.7-3.2c0.6-1,1.1-1.6,1.8-1.9c0.6-0.3,1.1-0.3,1.6-0.2c0.5,0.2,0.8,0.5,1,1
		c0.2,0.5,0.2,1.1,0,1.8c-0.6,1.4-1.4,2.7-2.6,3.5c-1.1,1-2.2,1.6-3.7,2.2c-1.3,0.6-2.7,1-4.3,1.3c-1.6,0.3-3,0.6-4.6,1
		c-0.8,0.8-1.4,1.6-1.9,2.6c-0.5,1-1,2.1-1.4,3.2s-0.8,2.2-1.1,3.5c-0.3,1.3-0.6,2.4-1,3.7c1.4-0.2,2.7-0.3,4-0.5s2.2-0.6,3.2-1.4
		s1.4-1,1.8-0.6c0.3,0.3,0.2,1-0.2,1.6c-0.6,1.1-1.3,2.1-2.1,2.9c-0.8,0.8-1.6,1.4-2.4,1.8c-0.8,0.5-1.8,0.8-2.7,1
		c-1,0.2-1.8,0.3-2.7,0.3c-0.5,2.2-1.1,4.5-1.9,6.4c1.3,0.2,2.7,0.5,3.8,0.8c1.1,0.3,2.4,0.8,3.5,1.1c1.1,0.3,2.2,0.5,3.4,0.6
		c1.1,0.2,2.1-0.2,3-0.6c0.5-0.3,1-0.3,1.1-0.3c0.2,0,0.3,0.3,0.3,0.8s-0.3,1-0.8,1.6s-1.1,1.3-2.1,2.2c-1.1,1.1-2.4,1.6-3.7,1.8
		c-1.3,0.2-2.6,0-3.8-0.3c-1.3-0.3-2.6-0.8-3.8-1.3s-2.6-1.1-4-1.4c-0.6,0.8-1.4,1.4-2.4,2.1c-1.1,0.6-2.1,1.1-3,1.3
		c-1,0.2-1.6,0-2.1-0.2c-0.5-0.3-1-0.6-1.1-1.3c-0.2-0.6-0.2-1.1,0.2-1.9c0.3-0.6,0.8-1.3,1.4-2.1c0.6-0.8,1.8-1.3,2.9-1.8
		c0.3-1.1,0.8-2.2,1.1-3.5c0.5-1.3,0.8-2.6,1.3-4c-0.8,0-1.4,0.2-1.8,0.5c-1.3,1-2.2,1.1-2.6,0.8C20.6,81.9,20.7,81.3,21.4,80.3z"/>
	<path class="st0" d="M45.1,85.9c-1-0.6-1.4-1.6-1.6-2.7c-0.2-1.1-0.2-2.4,0-3.7c0.3-1.3,0.8-2.6,1.4-3.8c0.6-1.3,1.6-2.4,2.6-3.4
		c1-1,2.1-1.8,3.4-2.2c1.3-0.5,2.6-0.6,3.8-0.3c0.5-1.4,1-2.9,1.6-4.2c0.6-1.4,1.3-2.7,2.1-4.2c0.8-1.3,1.4-2.6,2.4-3.7
		c0.8-1.1,1.8-2.2,2.6-3.2c1.1-1.3,2.2-2.1,3.4-2.2c1-0.2,1.8,0,2.4,0.5c0.5,0.6,0.8,1.6,0.8,2.9s-0.5,2.9-1.3,4.6
		c-1.8,3.7-3.5,7.2-5.3,10.2c-1.8,3.2-3.7,5.9-5.4,8.2c0.3,0.6,0.8,1,1.6,1c0.6,0,1.4-0.2,2.2-0.5c0.8-0.3,1.6-0.8,2.4-1.4
		c0.8-0.6,1.4-1.3,1.8-1.9c0.3-0.5,0.6-0.8,1.1-1c0.3-0.2,0.6-0.2,1,0s0.3,0.5,0.5,0.8s-0.2,0.8-0.5,1.3c-0.3,0.3-0.6,0.8-1.1,1.4
		c-0.5,0.6-1,1.3-1.6,1.9c-0.6,0.6-1.3,1.3-2.1,1.9c-0.8,0.6-1.4,1.1-2.2,1.6c-0.8,0.5-1.6,0.6-2.4,0.8c-0.8,0.2-1.6,0-2.4-0.3
		c-0.8-0.3-1.3-0.8-1.8-1.6c-1.8,1.8-3.5,2.9-5,3.5C47.6,86.9,46.2,86.7,45.1,85.9z M53.3,79.2c0-1.1,0-2.2,0.2-3.4
		c0.2-1.3,0.5-2.4,0.8-3.8c-0.6,0-1.3,0.2-1.9,0.5s-1.3,1-1.8,1.4c-0.5,0.5-1.1,1.3-1.4,2.1c-0.5,0.8-0.8,1.4-1,2.2
		c-0.2,0.8-0.3,1.4-0.3,1.9c0,0.6,0.2,1,0.6,1.3c0.5,0.3,1.1,0.3,1.9,0C51,81.1,52,80.3,53.3,79.2z M63.5,59.3
		c-0.8,1.1-1.6,2.4-2.2,3.7c-0.6,1.3-1.3,2.6-1.8,3.8c-0.5,1.3-1,2.6-1.3,3.8c-0.3,1.3-0.6,2.4-0.8,3.4c0.6-0.8,1.1-1.6,1.8-2.4
		s1.1-1.8,1.8-2.7c1.4-2.2,2.6-4.3,3.2-5.9c0.6-1.6,1-2.9,1.1-3.7c0.2-0.8,0-1.3-0.5-1.3C64.5,58,64,58.5,63.5,59.3z"/>
	<path class="st0" d="M69.7,68c0.6-0.5,1.3-1,1.9-1.3c0.6-0.3,1.3-0.5,1.8-0.5c0.5,0,0.8,0.2,1,0.5c0.2,0.3,0,1-0.6,1.9
		c-0.8,1.1-1.4,2.2-1.9,3.4c-0.5,1.1-0.8,2.1-1,2.9s-0.3,1.6-0.3,2.2s0.2,1,0.5,1.1c0.6,0.3,1.3,0.5,2.1,0c0.8-0.3,1.6-1,2.6-1.9
		c0-1,0-1.9,0.2-2.9c0.2-1,0.5-1.9,0.8-3c0.3-1,0.8-1.9,1.3-2.7s1.1-1.4,1.6-2.1c0.5-0.5,1.1-1,1.6-1.1c0.5-0.2,1-0.2,1.4,0.2
		c0.5,0.3,0.6,1,0.8,1.8c0,0.8-0.2,1.6-0.3,2.7c-0.3,1-0.8,2.1-1.3,3.2c-0.6,1.1-1.3,2.2-2.1,3.4c0.2,0.3,0.3,0.6,0.6,0.8
		c0.3,0.2,0.6,0.2,1.1,0c0.5-0.2,1-0.3,1.4-0.8c0.5-0.3,1-0.8,1.6-1.4c0.5-0.6,1.1-1.3,1.6-1.9c0.3-0.6,0.8-1,1.1-1.1
		c0.3-0.2,0.6-0.2,1,0c0.2,0.2,0.3,0.5,0.3,0.8c0,0.5-0.2,1-0.6,1.4c-0.8,1.3-1.8,2.4-2.6,3.4c-1,1.1-1.8,1.9-2.7,2.6
		s-1.8,1.1-2.7,1.3c-1,0.2-1.8-0.2-2.6-0.6c-0.2-0.2-0.5-0.3-0.8-0.6c-0.6,0.6-1.4,1.3-2.2,1.8c-0.8,0.5-1.6,1-2.2,1.1
		c-0.8,0.3-1.6,0.3-2.2,0.3c-0.8,0-1.4-0.3-2.1-0.8c-1-0.6-1.6-1.4-1.9-2.6c-0.3-1.1-0.3-2.4-0.2-3.7c0.2-1.3,0.6-2.6,1.3-4
		C67.8,70,68.6,68.9,69.7,68z"/>
	<path class="st0" d="M104.2,70.5c-0.5,0.8-1.1,1.6-1.9,2.4c-0.8,0.8-1.6,1.6-2.6,2.4c-1,0.8-1.9,1.4-3,1.9c-1.1,0.6-2.2,1-3.5,1.3
		c-1.6,0.3-2.9,0.2-3.8-0.5c-1-0.6-1.8-1.6-2.2-2.7c-0.5-1.1-0.6-2.4-0.5-4c0.2-1.6,0.5-2.9,1.1-4.3c0.6-1.4,1.6-2.6,2.9-3.7
		c1.3-1.1,2.9-1.8,4.8-2.1c1-0.2,1.8-0.2,2.4,0c0.6,0.2,1.1,0.5,1.6,0.8c0.3,0.3,0.6,0.8,0.8,1.4c0.2,0.5,0.2,1,0,1.4
		s-0.3,1-0.6,1.3s-0.8,0.6-1.4,0.6c-0.5,0.2-1,0-1.3-0.2c-0.3-0.2-0.6-0.5-0.8-0.8c-0.2,0-0.2-0.3-0.2-0.6s0.2-0.6,0.5-1
		c-1,0.2-1.9,0.6-2.6,1.4c-0.8,0.8-1.3,1.8-1.8,2.7c-0.3,1-0.6,1.9-0.5,2.9c0,1,0.5,1.6,1.1,2.1c0.6,0.5,1.3,0.6,2.1,0.6
		s1.8-0.2,2.6-0.6s1.8-1,2.7-1.6c0.8-0.6,1.6-1.4,2.2-2.4c0.3-0.5,0.6-0.8,1-0.8c0.3-0.2,0.6,0,1,0.2c0.3,0.2,0.3,0.5,0.5,0.8
		C104.7,69.7,104.5,70.2,104.2,70.5z"/>
	<path class="st0" d="M104,75.3c-1.1-1-1.8-1.9-1.8-3.4c-0.2-1.3,0-2.7,0.5-4.2c0.5-1.4,1.3-2.7,2.4-4c1.1-1.3,2.2-2.4,3.5-3.4
		c1.3-1,2.6-1.4,3.8-1.8c1.3-0.3,2.6,0,3.7,0.6c0.5-0.3,1-0.5,1.4-0.5s0.8,0.2,1.1,0.3c0.3,0.3,0.5,0.6,0.6,1.1c0.2,0.5,0.2,1,0,1.6
		c-0.3,1.1-0.6,2.1-1.3,3.2c-0.5,1.1-1.1,2.2-1.9,3.2c0,0.5,0.2,0.8,0.2,1.1s0.3,0.5,0.5,0.6c0.5,0.2,1.1,0,2.1-0.8
		c1-0.6,2.1-1.9,3.4-3.8c0.3-0.5,0.6-0.8,1.1-1c0.5-0.2,0.6,0,1,0.2c0.2,0.2,0.3,0.5,0.3,0.8s-0.2,0.8-0.5,1.3
		c-0.6,1-1.4,1.9-2.2,2.9c-0.8,1-1.6,1.8-2.2,2.4c-0.8,0.6-1.6,1.3-2.4,1.6c-0.8,0.3-1.6,0.5-2.4,0.3c-1-0.2-1.8-0.8-2.2-1.8
		c-0.8,0.8-1.6,1.4-2.4,1.9s-1.6,1-2.4,1.3c-0.8,0.3-1.6,0.3-2.2,0.3C105.3,76.1,104.5,75.8,104,75.3z M113.3,63.6
		c0.2-0.5,0.3-1,0.5-1.3c0.2-0.3,0.3-0.8,0.6-1.1c-0.5,0-1.1,0.2-1.8,0.5c-0.6,0.3-1.3,0.8-1.9,1.4c-0.6,0.6-1.1,1.3-1.8,1.9
		c-0.5,0.6-1,1.4-1.3,2.1c-0.3,0.6-0.5,1.4-0.5,1.9s0.2,1.1,0.5,1.6c0.2,0.2,0.5,0.3,0.8,0.3s0.6,0,1.1-0.2c0.5-0.2,0.8-0.5,1.3-0.8
		s1-0.6,1.4-1.1C112.3,67.3,112.7,65.6,113.3,63.6z"/>
	<path class="st0" d="M119.4,50.2c1.3-0.6,2.7-1.1,4.2-1.6c1.4-0.5,2.7-0.8,4-1.1c0.8-1,1.6-1.8,2.4-2.4c0.8-0.5,1.6-0.6,2.4-0.5
		c0.8,0.3,1.3,0.8,1.4,1.8l2.9-0.2c0.5,0,1,0,1.3,0.2c0.3,0.2,0.5,0.3,0.6,0.5c0,0.2,0,0.3-0.2,0.5c-0.2,0.2-0.5,0.3-1,0.3
		c-0.5,0.2-1.1,0.2-1.6,0.3c-0.6,0.2-1.3,0.3-1.9,0.5c-0.2,1.1-0.5,2.4-1,3.7c-0.5,1.3-1.1,2.7-1.8,4.2c-0.6,1.4-1.4,2.7-2.2,4
		c-0.8,1.3-1.6,2.6-2.6,3.5c0,0.8,0.2,1.6,0.5,2.2c0.2,0.6,0.6,1,1,1.3c0.5,0.3,1.1,0.3,1.6,0.2c0.5-0.2,1.1-0.5,1.6-1
		c0.5-0.5,1-1,1.4-1.6c0.5-0.6,1-1.1,1.3-1.8c0.3-0.5,0.6-0.6,1-0.8c0.3-0.2,0.6,0,0.8,0.2c0.2,0.2,0.3,0.5,0.5,0.8
		c0,0.3,0,0.8-0.3,1.1c-1,1.3-1.8,2.4-2.7,3.5c-0.8,1.1-1.8,1.9-2.6,2.6c-0.8,0.6-1.6,1.1-2.6,1.3c-0.8,0.2-1.6,0-2.4-0.3
		c-1.1-0.6-1.9-1.8-2.4-3.2c-0.5-1.4-0.6-3.2-0.5-5.1s0.3-4,1-6.1c0.5-2.1,1.1-4,1.9-5.9c-1.6,0.6-3,1.3-4.3,1.9
		c-0.8,0.5-1.4,0.6-2.1,0.8c-0.5,0-1,0-1.3-0.2c-0.3-0.2-0.5-0.5-0.5-0.8s0-0.6,0.2-1.1c0.2-0.5,0.5-0.8,0.8-1.1
		C118.6,50.4,118.9,50.5,119.4,50.2z M129.2,50.2c-0.3,0.5-0.6,1-0.8,1.8c-0.3,0.8-0.5,1.6-0.8,2.4c-0.3,0.8-0.5,1.8-0.8,2.7
		c-0.2,1-0.5,1.9-0.5,2.9c0.5-1,1.1-2.1,1.6-3.2c0.6-1.1,1.1-2.1,1.4-3c0.5-1,0.8-1.8,1-2.6c0.2-0.8,0.3-1.3,0.2-1.6L129.2,50.2z"/>
	<path class="st0" d="M138,55.6c0.3-0.5,0.8-0.8,1.3-1.1c0.5-0.3,0.8-0.5,1.3-0.5c0.3,0,0.6,0,0.8,0.2c0.2,0.2,0.2,0.6,0.2,1.1
		c-0.2,0.3-0.3,1-0.5,1.4c-0.3,0.6-0.5,1.3-0.8,1.9c-0.3,0.6-0.6,1.4-0.8,2.1c-0.3,0.8-0.5,1.4-0.6,2.1c-0.2,0.6-0.3,1.1-0.3,1.6
		c0,0.5,0.2,0.8,0.3,1c0.3,0.3,0.8,0.3,1.3,0.2c0.5-0.2,1-0.5,1.6-1c0.5-0.5,1-1,1.6-1.4c0.5-0.6,1-1.1,1.3-1.6
		c0.3-0.5,0.6-0.8,1-0.8c0.3,0,0.6,0,0.8,0.2c0.2,0.2,0.3,0.5,0.3,0.8s0,0.8-0.3,1.1c-1.6,2.1-3,3.8-4.3,5.1c-1.3,1.3-2.7,2.1-4,2.2
		c-0.6,0.2-1.3,0.2-1.9-0.2c-0.6-0.2-1.1-0.5-1.6-1c-0.5-0.5-0.8-1.1-1-1.9c-0.2-0.8-0.2-1.8,0-2.9c0.2-1.1,0.5-2.1,1-3
		c0.3-1,0.8-1.8,1.3-2.6c0.5-0.8,1-1.4,1.4-2.1C137.2,56.6,137.6,56,138,55.6z M145.6,47c0.2,0.8,0,1.6-0.5,2.4
		c-0.5,0.6-1.1,1.1-2.1,1.3c-0.8,0.2-1.6,0-2.4-0.5c-0.6-0.5-1.1-1.1-1.3-2.1c-0.2-1,0-1.6,0.5-2.4c0.5-0.6,1.1-1.1,2.1-1.3
		c0.8-0.2,1.6,0,2.4,0.5C145.2,45.4,145.5,46,145.6,47z"/>
	<path class="st0" d="M146.6,68c-1.3-0.8-1.9-1.8-2.2-3.2c-0.3-1.3-0.3-2.6,0-4s0.8-2.7,1.6-4c0.8-1.3,1.8-2.4,2.7-3.4
		c1-1,2.1-1.6,3.2-1.9c1.1-0.3,2.2-0.2,3.2,0.5c0.2-0.3,0.5-0.5,0.8-0.5c0.3-0.2,1,0,1.6,0.3c0.5,0.2,1,0.3,1.4,0.5
		c0.5,0.2,1,0.3,1.6,0.5s1.3,0.2,1.9,0.2c0.6,0,1.4,0,2.4-0.2c0.5,0,0.8,0,1,0.2c0.2,0.2,0.3,0.5,0.3,0.8c0,0.3-0.2,0.5-0.5,0.8
		s-0.6,0.5-1,0.6c-1,0.2-1.8,0.3-2.4,0.5c-0.8,0-1.4,0.2-1.9,0c-0.6,0-1.1,0-1.6-0.2c-0.5-0.2-0.8-0.2-1.1-0.3
		c0.2,1.1,0.2,2.4-0.2,3.5c-0.3,1.1-0.6,2.4-1.1,3.5c-0.5,1.1-1.1,2.2-1.9,3.2s-1.6,1.8-2.4,2.2c-0.8,0.6-1.8,1-2.7,1
		C148.5,68.9,147.6,68.6,146.6,68z M149.7,63.6c0.5,0.5,1.1,0.5,1.8,0c0.6-0.5,1.3-1.1,1.9-2.1c0.6-1,1.1-2.1,1.4-3.2
		c0.3-1.3,0.5-2.4,0.5-3.5c-0.6-0.5-1.3-0.6-1.9-0.5s-1.1,0.5-1.8,1.1c-0.5,0.5-1,1.3-1.4,2.1c-0.3,0.8-0.6,1.6-0.8,2.4
		c-0.2,0.8-0.3,1.6-0.2,2.2C149.2,62.8,149.3,63.3,149.7,63.6z"/>
	<path class="st0" d="M164.9,52.9c0.3-0.2,0.8-0.2,1.3,0c0.8-0.8,1.4-1.4,2.2-2.2c0.8-0.6,1.6-1.3,2.2-1.8c0.8-0.5,1.4-0.8,2.2-0.8
		c0.6-0.2,1.3,0,1.9,0.3c0.6,0.5,1.1,1,1.3,1.6c0.2,0.6,0.2,1.3,0.2,1.9c-0.2,0.6-0.3,1.4-0.5,2.2c-0.3,0.8-0.5,1.4-0.8,2.1
		c-0.2,0.6-0.3,1.3-0.5,1.8c-0.2,0.5,0,0.8,0.3,1c0.3,0.3,0.8,0.3,1.3,0.3c0.5-0.2,0.8-0.3,1.3-0.6c0.3-0.3,0.8-0.8,1.3-1.3
		c0.5-0.5,0.8-1.1,1.1-1.6c0.3-0.5,0.6-0.8,1.1-1c0.3-0.2,0.6-0.2,1,0c0.2,0.2,0.3,0.5,0.3,0.8s-0.2,0.8-0.5,1.4
		c-0.8,1.3-1.8,2.4-2.6,3.5c-0.8,1.1-1.8,1.9-2.6,2.6c-0.8,0.6-1.8,1.1-2.6,1.1c-0.8,0.2-1.6,0-2.4-0.6c-0.8-0.5-1.1-1.1-1.3-1.9
		c-0.2-0.8-0.2-1.6,0-2.4c0.2-0.8,0.5-1.8,0.8-2.6c0.3-1,0.8-1.8,1.1-2.4c0.3-0.8,0.6-1.4,0.8-1.9c0.2-0.5,0.2-0.8,0-1
		c-0.3-0.2-0.5-0.2-1,0c-0.3,0.2-0.8,0.5-1.1,0.8c-0.5,0.3-0.8,0.8-1.3,1.3c-0.5,0.5-1,1.1-1.3,1.8v0.2c0.2,1.4,0.3,2.9,0,4.2
		c-0.2,1.3-0.5,2.6-1,3.5c-0.5,1-1.1,1.8-1.8,2.4c-0.8,0.6-1.4,0.8-2.4,0.8c-0.6,0-1.1-0.3-1.3-1c-0.3-0.6-0.3-1.4-0.3-2.2
		c0-1,0.3-1.9,0.6-3c0.3-1.1,1-2.2,1.8-3.4l1-1.3l-0.2-1C164.4,53.4,164.4,53.1,164.9,52.9z"/>
</g>
<path class="st0" d="M100.2,62.5"/>
<path class="st0" d="M92.3,66.5"/>
<path class="st0" d="M132,77.6c0,0,21.5-7.5,23.2,3.4c1.9,12.3-37,4.5-101.4,19.2L132,77.6z"/>
</svg>
